<svg fill="none" height="41" viewBox="0 0 123 41" width="123" xmlns="http://www.w3.org/2000/svg"><g fill="#fff"><path d="m12.1445 20.7402-6.51665 6.6636v9.3506h-5.12785v-36.112554h5.12785v20.205854l19.44305-20.205854h5.8757l-15.2767 16.229154 16.345 19.8834h-5.9825z"/><path d="m69.4054 33.8526 2.0298-3.8692c2.3502 1.6122 5.9825 2.7944 9.5079 2.7944 4.5936 0 6.4098-1.3972 6.4098-3.7617 0-6.1262-17.1997-.8598-17.1997-11.7151 0-4.944 4.38-8.16831 11.324-8.16831 3.5254 0 7.5849.96731 9.9352 2.47201l-2.1366 3.8692c-2.4571-1.6122-5.1278-2.1496-7.7986-2.1496-4.2732 0-6.4098 1.6122-6.4098 3.7618 0 6.4486 17.1996 1.1822 17.1996 11.8225 0 4.944-4.4868 8.0608-11.7513 8.0608-4.38.1075-8.8669-1.2897-11.1103-3.1168z"/><path d="m122.5 20.2027v16.5516h-4.701v-3.6542c-1.602 2.472-4.7 3.8692-8.973 3.8692-6.196 0-10.0423-3.3319-10.0423-8.0609 0-4.4066 2.7773-7.9533 10.8963-7.9533h7.799v-.9673c0-4.1917-2.457-6.5562-7.264-6.5562-3.205 0-6.517 1.1823-8.654 2.9019l-2.0295-3.7617c2.7775-2.257 6.8375-3.54678 11.2175-3.54678 7.585.10748 11.751 3.76168 11.751 11.17768zm-4.914 8.1683v-3.8692h-7.585c-4.914 0-6.303 1.9346-6.303 4.1917 0 2.6869 2.243 4.4066 5.982 4.4066 3.739.1074 6.731-1.5047 7.906-4.7291z"/><path d="m53.5946 29.5537v7.3085l3.0981-1.8271v-7.3085z"/><path d="m62.141 20.6328-12.7128-7.416-7.0508-4.08411-6.9439 12.14501.1068 11.3926 12.606 7.416 1.2819-.7523v-10.7478l5.662-9.9955 5.7688 3.3319v10.7477l1.282-.7523z"/></g></svg>